<?xml version="1.0" encoding="utf-8"?>

<svg version="1.1" id="mpk" xmlns="http://www.w3.org/2000/svg" xmlns:xlink="http://www.w3.org/1999/xlink" x="0px" y="0px"
	height="85%" viewBox="0 0 1306.7 724.1" enable-background="new 0 0 1306.7 724.1" xml:space="preserve">

	<style type="text/css">
		.stroke{fill:#FFFFFF;}
	</style>

	<g id="keys">
		<g>
			<path fill="#FFFFFF" d="M124.2,380.3v317.2c0,0.1-0.1,0.2-0.2,0.2H63c-0.7,0-1.3-0.6-1.3-1.3V380.3H124.2 M129,374.4H56.9
				c-0.6,0-1.1,0.5-1.1,1.1v321c0,3.9,3.2,7.1,7.1,7.1h61c3.4,0,6.1-2.7,6.1-6.1V375.5C130.1,374.9,129.6,374.4,129,374.4L129,374.4z
				"/>
		</g>
		<g>
			<path fill="#FFFFFF" d="M204.3,380.3v317.2c0,0.1-0.1,0.2-0.2,0.2h-61c-0.7,0-1.3-0.6-1.3-1.3V380.3H204.3 M209.2,374.4H137
				c-0.6,0-1.1,0.5-1.1,1.1v321c0,3.9,3.2,7.1,7.1,7.1h61c3.4,0,6.1-2.7,6.1-6.1V375.5C210.2,374.9,209.7,374.4,209.2,374.4
				L209.2,374.4z"/>
		</g>
		<g>
			<path fill="#FFFFFF" d="M284.5,380.3v317.2c0,0.1-0.1,0.2-0.2,0.2h-61c-0.7,0-1.3-0.6-1.3-1.3V380.3H284.5 M289.3,374.4h-72.1
				c-0.6,0-1.1,0.5-1.1,1.1v321c0,3.9,3.2,7.1,7.1,7.1h61c3.4,0,6.1-2.7,6.1-6.1V375.5C290.3,374.9,289.9,374.4,289.3,374.4
				L289.3,374.4z"/>
		</g>
		<g>
			<path fill="#FFFFFF" d="M364.6,380.3v317.2c0,0.1-0.1,0.2-0.2,0.2h-61c-0.7,0-1.3-0.6-1.3-1.3V380.3H364.6 M369.4,374.4h-72.1
				c-0.6,0-1.1,0.5-1.1,1.1v321c0,3.9,3.2,7.1,7.1,7.1h61c3.4,0,6.1-2.7,6.1-6.1V375.5C370.5,374.9,370,374.4,369.4,374.4
				L369.4,374.4z"/>
		</g>
		<g>
			<path fill="#FFFFFF" d="M444.7,380.3v317.2c0,0.1-0.1,0.2-0.2,0.2h-61c-0.7,0-1.3-0.6-1.3-1.3V380.3H444.7 M449.6,374.4h-72.1
				c-0.6,0-1.1,0.5-1.1,1.1v321c0,3.9,3.2,7.1,7.1,7.1h61c3.4,0,6.1-2.7,6.1-6.1V375.5C450.6,374.9,450.1,374.4,449.6,374.4
				L449.6,374.4z"/>
		</g>
		<g>
			<path fill="#FFFFFF" d="M524.9,380.3v317.2c0,0.1-0.1,0.2-0.2,0.2h-61c-0.7,0-1.3-0.6-1.3-1.3V380.3H524.9 M529.7,374.4h-72.1
				c-0.6,0-1.1,0.5-1.1,1.1v321c0,3.9,3.2,7.1,7.1,7.1h61c3.4,0,6.1-2.7,6.1-6.1V375.5C530.7,374.9,530.3,374.4,529.7,374.4
				L529.7,374.4z"/>
		</g>
		<g>
			<path fill="#FFFFFF" d="M605,380.3v317.2c0,0.1-0.1,0.2-0.2,0.2h-61c-0.7,0-1.3-0.6-1.3-1.3V380.3H605 M609.8,374.4h-72.1
				c-0.6,0-1.1,0.5-1.1,1.1v321c0,3.9,3.2,7.1,7.1,7.1h61c3.4,0,6.1-2.7,6.1-6.1V375.5C610.9,374.9,610.4,374.4,609.8,374.4
				L609.8,374.4z"/>
		</g>
		<g>
			<path fill="#FFFFFF" d="M685.2,380.3v317.2c0,0.1-0.1,0.2-0.2,0.2h-61c-0.7,0-1.3-0.6-1.3-1.3V380.3H685.2 M690,374.4h-72.1
				c-0.6,0-1.1,0.5-1.1,1.1v321c0,3.9,3.2,7.1,7.1,7.1h61c3.4,0,6.1-2.7,6.1-6.1V375.5C691,374.9,690.5,374.4,690,374.4L690,374.4z"
				/>
		</g>
		<g>
			<path fill="#FFFFFF" d="M765.3,380.3v317.2c0,0.1-0.1,0.2-0.2,0.2h-61c-0.7,0-1.3-0.6-1.3-1.3V380.3H765.3 M770.1,374.4H698
				c-0.6,0-1.1,0.5-1.1,1.1v321c0,3.9,3.2,7.1,7.1,7.1h61c3.4,0,6.1-2.7,6.1-6.1V375.5C771.1,374.9,770.7,374.4,770.1,374.4
				L770.1,374.4z"/>
		</g>
		<g>
			<path fill="#FFFFFF" d="M845.4,380.3v317.2c0,0.1-0.1,0.2-0.2,0.2h-61c-0.7,0-1.3-0.6-1.3-1.3V380.3H845.4 M850.2,374.4h-72.1
				c-0.6,0-1.1,0.5-1.1,1.1v321c0,3.9,3.2,7.1,7.1,7.1h61c3.4,0,6.1-2.7,6.1-6.1V375.5C851.3,374.9,850.8,374.4,850.2,374.4
				L850.2,374.4z"/>
		</g>
		<g>
			<path fill="#FFFFFF" d="M925.6,380.3v317.2c0,0.1-0.1,0.2-0.2,0.2h-61c-0.7,0-1.3-0.6-1.3-1.3V380.3H925.6 M930.4,374.4h-72.1
				c-0.6,0-1.1,0.5-1.1,1.1v321c0,3.9,3.2,7.1,7.1,7.1h61c3.4,0,6.1-2.7,6.1-6.1V375.5C931.4,374.9,930.9,374.4,930.4,374.4
				L930.4,374.4z"/>
		</g>
		<g>
			<path fill="#FFFFFF" d="M1005.7,380.3v317.2c0,0.1-0.1,0.2-0.2,0.2h-61c-0.7,0-1.3-0.6-1.3-1.3V380.3H1005.7 M1010.5,374.4h-72.1
				c-0.6,0-1.1,0.5-1.1,1.1v321c0,3.9,3.2,7.1,7.1,7.1h61c3.4,0,6.1-2.7,6.1-6.1V375.5C1011.6,374.9,1011.1,374.4,1010.5,374.4
				L1010.5,374.4z"/>
		</g>
		<g>
			<path fill="#FFFFFF" d="M1085.8,380.3v317.2c0,0.1-0.1,0.2-0.2,0.2h-61c-0.7,0-1.3-0.6-1.3-1.3V380.3H1085.8 M1090.6,374.4h-72.1
				c-0.6,0-1.1,0.5-1.1,1.1v321c0,3.9,3.2,7.1,7.1,7.1h61c3.4,0,6.1-2.7,6.1-6.1V375.5C1091.7,374.9,1091.2,374.4,1090.6,374.4
				L1090.6,374.4z"/>
		</g>
		<g>
			<path fill="#FFFFFF" d="M1166,380.3v317.2c0,0.1-0.1,0.2-0.2,0.2h-61c-0.7,0-1.3-0.6-1.3-1.3V380.3H1166 M1170.8,374.4h-72.1
				c-0.6,0-1.1,0.5-1.1,1.1v321c0,3.9,3.2,7.1,7.1,7.1h61c3.4,0,6.1-2.7,6.1-6.1V375.5C1171.8,374.9,1171.4,374.4,1170.8,374.4
				L1170.8,374.4z"/>
		</g>
		<g>
			<path fill="#FFFFFF" d="M1246.1,380.3v317.2c0,0.1-0.1,0.2-0.2,0.2h-61c-0.7,0-1.3-0.6-1.3-1.3V380.3H1246.1 M1250.9,374.4h-72.1
				c-0.6,0-1.1,0.5-1.1,1.1v321c0,3.9,3.2,7.1,7.1,7.1h61c3.4,0,6.1-2.7,6.1-6.1V375.5C1252,374.9,1251.5,374.4,1250.9,374.4
				L1250.9,374.4z"/>
		</g>
		<path fill="#FFFFFF" d="M153.9,576.1h-42.5c-3.3,0-6-2.7-6-6V374.4h54.6v195.6C159.9,573.4,157.2,576.1,153.9,576.1z"/>
		<path fill="#FFFFFF" d="M233.6,576.1h-42.5c-3.3,0-6-2.7-6-6V374.4h54.6v195.6C239.6,573.4,236.9,576.1,233.6,576.1z"/>
		<path fill="#FFFFFF" d="M393.8,576.1h-42.5c-3.3,0-6-2.7-6-6V374.4h54.6v195.6C399.9,573.4,397.2,576.1,393.8,576.1z"/>
		<path fill="#FFFFFF" d="M474,576.1h-42.5c-3.3,0-6-2.7-6-6V374.4H480v195.6C480,573.4,477.3,576.1,474,576.1z"/>
		<path fill="#FFFFFF" d="M554.1,576.1h-42.5c-3.3,0-6-2.7-6-6V374.4h54.6v195.6C560.1,573.4,557.4,576.1,554.1,576.1z"/>
		<path fill="#FFFFFF" d="M714.4,576.1h-42.5c-3.3,0-6-2.7-6-6V374.4h54.6v195.6C720.4,573.4,717.7,576.1,714.4,576.1z"/>
		<path fill="#FFFFFF" d="M794.5,576.1H752c-3.3,0-6-2.7-6-6V374.4h54.6v195.6C800.5,573.4,797.8,576.1,794.5,576.1z"/>
		<path fill="#FFFFFF" d="M954.8,576.1h-42.5c-3.3,0-6-2.7-6-6V374.4h54.6v195.6C960.8,573.4,958.1,576.1,954.8,576.1z"/>
		<path fill="#FFFFFF" d="M1034.9,576.1h-42.5c-3.3,0-6-2.7-6-6V374.4h54.6v195.6C1040.9,573.4,1038.2,576.1,1034.9,576.1z"/>
		<path fill="#FFFFFF" d="M1115.1,576.1h-42.5c-3.3,0-6-2.7-6-6V374.4h54.6v195.6C1121.1,573.4,1118.4,576.1,1115.1,576.1z"/>
		<line fill="none" stroke="#FFFFFF" stroke-width="5.8611" stroke-miterlimit="10" x1="55.9" y1="376.9" x2="1251.1" y2="376.9"/>
	</g>

	<g id="knobs">
		<g id="knob8">
			<g>
				<path fill="#FFFFFF" d="M1207.6,248.4c19.6,0,35.5,15.8,35.5,35.4s-15.9,35.4-35.5,35.4s-35.5-15.8-35.5-35.4
					S1188,248.4,1207.6,248.4 M1207.6,242.5c-22.8,0-41.4,18.5-41.4,41.2s18.6,41.2,41.4,41.2c22.8,0,41.4-18.5,41.4-41.2
					S1230.4,242.5,1207.6,242.5L1207.6,242.5z"/>
			</g>
			<ellipse fill="#FFFFFF" cx="1207.6" cy="283.8" rx="30.4" ry="30.3"/>
		</g>
		<g id="knob7">
			<g>
				<path fill="#FFFFFF" d="M1085.6,248.4c19.6,0,35.5,15.8,35.5,35.4s-15.9,35.4-35.5,35.4c-19.6,0-35.5-15.8-35.5-35.4
					S1066,248.4,1085.6,248.4 M1085.6,242.5c-22.8,0-41.4,18.5-41.4,41.2s18.6,41.2,41.4,41.2c22.8,0,41.4-18.5,41.4-41.2
					S1108.5,242.5,1085.6,242.5L1085.6,242.5z"/>
			</g>
			<ellipse fill="#FFFFFF" cx="1085.6" cy="283.8" rx="30.4" ry="30.3"/>
		</g>
		<g id="knob6">
			<g>
				<path fill="#FFFFFF" d="M963.7,248.4c19.6,0,35.5,15.8,35.5,35.4s-15.9,35.4-35.5,35.4s-35.5-15.8-35.5-35.4
					S944.1,248.4,963.7,248.4 M963.7,242.5c-22.8,0-41.4,18.5-41.4,41.2s18.6,41.2,41.4,41.2s41.4-18.5,41.4-41.2
					S986.5,242.5,963.7,242.5L963.7,242.5z"/>
			</g>
			<ellipse fill="#FFFFFF" cx="963.7" cy="283.8" rx="30.4" ry="30.3"/>
		</g>
		<g id="knob5">
			<g>
				<path fill="#FFFFFF" d="M841.8,248.4c19.6,0,35.5,15.8,35.5,35.4s-15.9,35.4-35.5,35.4c-19.6,0-35.5-15.8-35.5-35.4
					S822.2,248.4,841.8,248.4 M841.8,242.5c-22.8,0-41.4,18.5-41.4,41.2S819,325,841.8,325s41.4-18.5,41.4-41.2
					S864.6,242.5,841.8,242.5L841.8,242.5z"/>
			</g>
			<ellipse fill="#FFFFFF" cx="841.8" cy="283.8" rx="30.4" ry="30.3"/>
		</g>
		<g id="knob4">
			<g>
				<path fill="#FFFFFF" d="M1207.6,137c19.6,0,35.5,15.8,35.5,35.4s-15.9,35.4-35.5,35.4s-35.5-15.8-35.5-35.4S1188,137,1207.6,137
					M1207.6,131.1c-22.8,0-41.4,18.5-41.4,41.2s18.6,41.2,41.4,41.2c22.8,0,41.4-18.5,41.4-41.2S1230.4,131.1,1207.6,131.1
					L1207.6,131.1z"/>
			</g>
			<ellipse fill="#FFFFFF" cx="1207.6" cy="172.3" rx="30.4" ry="30.3"/>
		</g>
		<g id="knob3">
			<g>
				<path fill="#FFFFFF" d="M1085.6,137c19.6,0,35.5,15.8,35.5,35.4s-15.9,35.4-35.5,35.4c-19.6,0-35.5-15.8-35.5-35.4
					S1066,137,1085.6,137 M1085.6,131.1c-22.8,0-41.4,18.5-41.4,41.2s18.6,41.2,41.4,41.2c22.8,0,41.4-18.5,41.4-41.2
					S1108.5,131.1,1085.6,131.1L1085.6,131.1z"/>
			</g>
			<ellipse fill="#FFFFFF" cx="1085.6" cy="172.3" rx="30.4" ry="30.3"/>
		</g>
		<g id="knob2">
			<g>
				<path fill="#FFFFFF" d="M963.7,137c19.6,0,35.5,15.8,35.5,35.4s-15.9,35.4-35.5,35.4s-35.5-15.8-35.5-35.4S944.1,137,963.7,137
					M963.7,131.1c-22.8,0-41.4,18.5-41.4,41.2s18.6,41.2,41.4,41.2s41.4-18.5,41.4-41.2S986.5,131.1,963.7,131.1L963.7,131.1z"/>
			</g>
			<ellipse fill="#FFFFFF" cx="963.7" cy="172.3" rx="30.4" ry="30.3"/>
		</g>
		<g id="knob1">
			<g>
				<path fill="#FFFFFF" d="M841.8,137c19.6,0,35.5,15.8,35.5,35.4s-15.9,35.4-35.5,35.4c-19.6,0-35.5-15.8-35.5-35.4
					S822.2,137,841.8,137 M841.8,131.1c-22.8,0-41.4,18.5-41.4,41.2s18.6,41.2,41.4,41.2s41.4-18.5,41.4-41.2
					S864.6,131.1,841.8,131.1L841.8,131.1z"/>
			</g>
			<ellipse fill="#FFFFFF" cx="841.8" cy="172.3" rx="30.4" ry="30.3"/>
		</g>
	</g>

	<g id="pad_controls">
		<g id="control4">
			<path fill="#FFFFFF" d="M1240.1,69.5v23.4h-42.8V69.5H1240.1 M1243.1,63.6h-49c-1.5,0-2.8,1.2-2.8,2.8v29.5c0,1.5,1.2,2.8,2.8,2.8
				h49c1.5,0,2.8-1.2,2.8-2.8V66.4C1245.9,64.8,1244.7,63.6,1243.1,63.6L1243.1,63.6z"/>
		</g>
		<g id="control3">
			<path fill="#FFFFFF" d="M1165.8,69.5v23.4H1123V69.5H1165.8 M1168.9,63.6h-49c-1.5,0-2.8,1.2-2.8,2.8v29.5c0,1.5,1.2,2.8,2.8,2.8
				h49c1.5,0,2.8-1.2,2.8-2.8V66.4C1171.7,64.8,1170.5,63.6,1168.9,63.6L1168.9,63.6z"/>
		</g>
		<g id="control2">
			<path fill="#FFFFFF" d="M1091.6,69.5v23.4h-42.8V69.5H1091.6 M1094.7,63.6h-49c-1.5,0-2.8,1.2-2.8,2.8v29.5c0,1.5,1.2,2.8,2.8,2.8
				h49c1.5,0,2.8-1.2,2.8-2.8V66.4C1097.5,64.8,1096.2,63.6,1094.7,63.6L1094.7,63.6z"/>
		</g>
		<g id="control1">
			<path fill="#FFFFFF" d="M1017.4,69.5v23.4h-42.8V69.5H1017.4 M1020.5,63.6h-49c-1.5,0-2.8,1.2-2.8,2.8v29.5c0,1.5,1.2,2.8,2.8,2.8
				h49c1.5,0,2.8-1.2,2.8-2.8V66.4C1023.3,64.8,1022,63.6,1020.5,63.6L1020.5,63.6z"/>
		</g>
	</g>

	<g id="display">
		<path fill="#FFFFFF" d="M930.8,56.7c1.7,0,3.1,1.4,3.1,3.1v44.9c0,1.7-1.4,3.1-3.1,3.1H798.7c-1.7,0-3.1-1.4-3.1-3.1V59.8
			c0-1.7,1.4-3.1,3.1-3.1H930.8 M930.8,50.9H798.7c-5,0-9,4-9,9v44.9c0,5,4,9,9,9h132.1c5,0,9-4,9-9V59.8
			C939.8,54.9,935.8,50.9,930.8,50.9L930.8,50.9z"/>
	</g>

	<g id="pads">
		
		<g>
			<path id="pad8" style="fill: #36d8d8; opacity: 0" d="M657.5,299.3c-3.2,0-5.8-2.6-5.8-5.8v-95.1c0-3.2,2.6-5.8,5.8-5.8H753c3.2,0,5.8,2.6,5.8,5.8v95.1c0,3.2-2.6,5.8-5.8,5.8 H657.5z"/>
			<path class="stroke" d="M753,195.6c1.5,0,2.8,1.2,2.8,2.8v95.1c0,1.5-1.2,2.8-2.8,2.8h-95.5c-1.5,0-2.8-1.2-2.8-2.8v-95.1
				c0-1.5,1.2-2.8,2.8-2.8H753 M753,189.6h-95.5c-4.9,0-8.8,3.9-8.8,8.8v95.1c0,4.9,3.9,8.8,8.8,8.8H753c4.9,0,8.8-3.9,8.8-8.8v-95.1
				C761.7,193.5,757.8,189.6,753,189.6L753,189.6z"/>
		</g>
		<g>
			<path id="pad7" style="fill: #3661d8; opacity: 0" d="M518.1,299.3c-3.2,0-5.8-2.6-5.8-5.8v-95.1c0-3.2,2.6-5.8,5.8-5.8h95.5c3.2,0,5.8,2.6,5.8,5.8v95.1c0,3.2-2.6,5.8-5.8,5.8 H518.1z"/>
			<path class="stroke" d="M613.6,195.6c1.5,0,2.8,1.2,2.8,2.8v95.1c0,1.5-1.2,2.8-2.8,2.8h-95.5c-1.5,0-2.8-1.2-2.8-2.8v-95.1
				c0-1.5,1.2-2.8,2.8-2.8H613.6 M613.6,189.6h-95.5c-4.9,0-8.8,3.9-8.8,8.8v95.1c0,4.9,3.9,8.8,8.8,8.8h95.5c4.9,0,8.8-3.9,8.8-8.8
				v-95.1C622.3,193.5,618.4,189.6,613.6,189.6L613.6,189.6z"/>
		</g>
		<g>
			<path id="pad6" style="fill: #8536d8; opacity: 0" d="M378.7,299.3c-3.2,0-5.8-2.6-5.8-5.8v-95.1c0-3.2,2.6-5.8,5.8-5.8h95.5c3.2,0,5.8,2.6,5.8,5.8v95.1c0,3.2-2.6,5.8-5.8,5.8 H378.7z"/>
			<path class="stroke" d="M474.2,195.6c1.5,0,2.8,1.2,2.8,2.8v95.1c0,1.5-1.2,2.8-2.8,2.8h-95.5c-1.5,0-2.8-1.2-2.8-2.8v-95.1
				c0-1.5,1.2-2.8,2.8-2.8H474.2 M474.2,189.6h-95.5c-4.9,0-8.8,3.9-8.8,8.8v95.1c0,4.9,3.9,8.8,8.8,8.8h95.5c4.9,0,8.8-3.9,8.8-8.8
				v-95.1C482.9,193.5,479,189.6,474.2,189.6L474.2,189.6z"/>
		</g>
		<g>
			<path id="pad5" style="fill: #d836b2; opacity: 0" d="M239.3,299.3c-3.2,0-5.8-2.6-5.8-5.8v-95.1c0-3.2,2.6-5.8,5.8-5.8h95.5c3.2,0,5.8,2.6,5.8,5.8v95.1c0,3.2-2.6,5.8-5.8,5.8 H239.3z"/>
			<path class="stroke" d="M334.8,195.6c1.5,0,2.8,1.2,2.8,2.8v95.1c0,1.5-1.2,2.8-2.8,2.8h-95.5c-1.5,0-2.8-1.2-2.8-2.8v-95.1
				c0-1.5,1.2-2.8,2.8-2.8H334.8 M334.8,189.6h-95.5c-4.9,0-8.8,3.9-8.8,8.8v95.1c0,4.9,3.9,8.8,8.8,8.8h95.5c4.9,0,8.8-3.9,8.8-8.8
				v-95.1C343.5,193.5,339.6,189.6,334.8,189.6L334.8,189.6z"/>
		</g>
		<g>
			<path id="pad4" style="fill: #38d680; opacity: 0" d="M657.5,160.5c-3.2,0-5.8-2.6-5.8-5.8V59.6c0-3.2,2.6-5.8,5.8-5.8H753c3.2,0,5.8,2.6,5.8,5.8v95.1c0,3.2-2.6,5.8-5.8,5.8
				H657.5z"/>
			<path class="stroke" d="M753,56.9c1.5,0,2.8,1.2,2.8,2.8v95.1c0,1.5-1.2,2.8-2.8,2.8h-95.5c-1.5,0-2.8-1.2-2.8-2.8V59.6
				c0-1.5,1.2-2.8,2.8-2.8H753 M753,50.9h-95.5c-4.9,0-8.8,3.9-8.8,8.8v95.1c0,4.9,3.9,8.8,8.8,8.8H753c4.9,0,8.8-3.9,8.8-8.8V59.6
				C761.7,54.8,757.8,50.9,753,50.9L753,50.9z"/>
		</g>
		<g>
			<path id="pad3" style="fill: #c3d638; opacity: 0" d="M518.1,160.5c-3.2,0-5.8-2.6-5.8-5.8V59.6c0-3.2,2.6-5.8,5.8-5.8h95.5c3.2,0,5.8,2.6,5.8,5.8v95.1c0,3.2-2.6,5.8-5.8,5.8 H518.1z"/>
			<path class="stroke" d="M613.6,56.9c1.5,0,2.8,1.2,2.8,2.8v95.1c0,1.5-1.2,2.8-2.8,2.8h-95.5c-1.5,0-2.8-1.2-2.8-2.8V59.6
				c0-1.5,1.2-2.8,2.8-2.8H613.6 M613.6,50.9h-95.5c-4.9,0-8.8,3.9-8.8,8.8v95.1c0,4.9,3.9,8.8,8.8,8.8h95.5c4.9,0,8.8-3.9,8.8-8.8
				V59.6C622.3,54.8,618.4,50.9,613.6,50.9L613.6,50.9z"/>
		</g>
		<g>
			<path id="pad2" style="fill: #eab52f; opacity: 0" d="M378.7,160.5c-3.2,0-5.8-2.6-5.8-5.8V59.6c0-3.2,2.6-5.8,5.8-5.8h95.5c3.2,0,5.8,2.6,5.8,5.8v95.1c0,3.2-2.6,5.8-5.8,5.8 H378.7z"/>
			<path class="stroke" d="M474.2,56.9c1.5,0,2.8,1.2,2.8,2.8v95.1c0,1.5-1.2,2.8-2.8,2.8h-95.5c-1.5,0-2.8-1.2-2.8-2.8V59.6
				c0-1.5,1.2-2.8,2.8-2.8H474.2 M474.2,50.9h-95.5c-4.9,0-8.8,3.9-8.8,8.8v95.1c0,4.9,3.9,8.8,8.8,8.8h95.5c4.9,0,8.8-3.9,8.8-8.8
				V59.6C482.9,54.8,479,50.9,474.2,50.9L474.2,50.9z"/>
		</g>
		<g>
			<path id="pad1" style="fill: #d83636; opacity: 0" d="M239.3,160.5c-3.2,0-5.8-2.6-5.8-5.8V59.6c0-3.2,2.6-5.8,5.8-5.8h95.5c3.2,0,5.8,2.6,5.8,5.8v95.1c0,3.2-2.6,5.8-5.8,5.8 H239.3z"/>
			<path class="stroke" d="M334.8,56.9c1.5,0,2.8,1.2,2.8,2.8v95.1c0,1.5-1.2,2.8-2.8,2.8h-95.5c-1.5,0-2.8-1.2-2.8-2.8V59.6
				c0-1.5,1.2-2.8,2.8-2.8H334.8 M334.8,50.9h-95.5c-4.9,0-8.8,3.9-8.8,8.8v95.1c0,4.9,3.9,8.8,8.8,8.8h95.5c4.9,0,8.8-3.9,8.8-8.8
				V59.6C343.5,54.8,339.6,50.9,334.8,50.9L334.8,50.9z"/>
		</g>


	</g>

	<g id="model">
		<path fill="#FDFDFD" d="M211.9,348.3c0.5-0.2,0.5-0.7,0.6-1c3.1-7.4,6.2-14.8,9.2-22.2c0.3-0.7,0.6-1.1,1.5-1c2.4,0.1,4.9,0,7.3,0
			c0.7,0,1,0.1,1,0.9c0,10.8,0,21.6,0,32.4c0,0.6-0.2,0.8-0.8,0.8c-2.4,0.1-2.4,0.1-2.4-2.3c0-9.1,0-18.3,0-27.4c0-1-0.3-1.2-1.2-1.2
			c-3.2,0-3.2,0-4.4,2.9c-3.1,7.5-6.2,15.1-9.3,22.6c-0.3,0.8-0.7,1.1-1.6,1.1c-0.9,0-1.1-0.4-1.3-1.1c-3.4-8.2-6.8-16.3-10.1-24.5
			c-0.3-0.8-0.7-1.1-1.6-1c-1,0.1-2.4-0.4-3,0.2c-0.5,0.6-0.2,1.9-0.2,2.9c0,8.9,0,17.8,0,26.7c0,0.9-0.3,1-1.1,1
			c-2.1,0-2.1,0-2.1-2.1c0-10.3,0-20.6,0-30.8c0-1,0.2-1.3,1.2-1.3c2.3,0.1,4.6,0.1,6.8,0c0.9,0,1.4,0.2,1.8,1.1
			C205.5,332.8,208.7,340.5,211.9,348.3z"/>
		<path fill="#FDFDFD" d="M235.9,341c0-5.3,0-10.6,0-15.9c0-0.9,0.3-1.1,1.2-1.1c9.7,0,19.3,0,29,0c4.6,0,7.4,2.9,7.4,7.5
			c0,2,0,4,0,6.1c-0.1,4.4-3,7.3-7.4,7.3c-7.2,0-14.5,0-21.7,0c-1,0-1.2,0.3-1.2,1.2c0.1,3.7,0,7.4,0,11c0,0.8-0.1,1.1-1,1.1
			c-2.2-0.1-2.2,0-2.2-2.1c0-4.3,0-8.7,0-13c0-1.1,0.2-1.5,1.4-1.5c8.2,0.1,16.3,0,24.5,0c2.9,0,4.3-1.5,4.3-4.3c0-2,0-4,0-5.9
			c0-2.5-1.5-4-4.1-4c-8.7,0-17.4,0-26.1,0c-0.9,0-1,0.3-1,1.1c0,9.5,0,18.9,0,28.4c0,1.1-0.2,1.6-1.4,1.4c-0.3-0.1-0.6,0-0.9,0
			c-0.8,0.1-1-0.2-1-1c0-4.5,0-9,0-13.5C235.9,342.7,235.9,341.9,235.9,341C235.9,341,235.9,341,235.9,341z"/>
		<path fill="#FDFDFD" d="M223.9,337.9c-0.7,1.8-1.4,3.4-2.1,5.1c-2,4.7-3.9,9.5-5.9,14.2c-0.3,0.7-0.6,1-1.4,0.9
			c-1.7-0.1-3.4-0.1-5.1,0c-0.8,0-1-0.3-1.3-0.9c-2.5-6.1-5-12.2-7.5-18.2c-0.2-0.4-0.3-0.7-0.7-1.1c0,0.4,0,0.7,0,1.1c0,6,0,12,0,18
			c0,0.9-0.2,1.2-1.1,1.1c-2.1-0.1-2.1,0-2.1-2.1c0-8.8,0-17.6,0-26.3c0-0.5-0.4-1.3,0.4-1.4c0.9,0,1.9-0.6,2.5,0.8
			c3.3,8.2,6.8,16.3,10.1,24.5c0.3,0.7,0.5,1.4,1.6,1.2c1-0.2,2.2,0.4,2.9-1.2c3.3-8.2,6.7-16.3,10-24.4c0.4-0.8,2.1-1.5,2.8-1
			c0.4,0.3,0.2,0.7,0.2,1.1c0,7.7,0,15.5,0,23.2c0,1.5,0,3,0,4.5c0,0.7-0.1,1-0.9,1c-2.3,0-2.3,0-2.3-2.2c0-5.5,0-11.1,0-16.6
			C224.1,338.8,224.2,338.4,223.9,337.9z"/>
		<path fill="#FFFFFF" d="M321.8,341.5c2.3-3,5.4-3.9,9-3.6c3.6,0.3,6.3,2.1,8.2,5.4c0.4-0.7,0.7-1.2,1.1-1.8c2.4-3.3,7-4.6,11.3-3.3
			c4,1.2,6.9,4.7,7,8.7c0.1,3.4,0,6.8,0.1,10.2c0,0.7-0.2,0.9-0.9,0.9c-2.3,0.1-2.3,0.1-2.3-2.3c-0.1-3.1,0.3-6.2-0.2-9.2
			c-0.6-4-3.7-6.1-8.2-5.8c-3.8,0.2-6.7,3.1-6.7,6.8c0,3.1,0,6.2,0,9.3c0,0.9-0.3,1.1-1.1,1.1c-2.3,0-2.3,0-2.3-2.2
			c0-2.7,0-5.4,0-8.1c-0.1-3.8-2.7-6.6-6.3-6.9c-4.6-0.4-8,1.9-8.7,5.8c-0.3,1.6-0.1,3.3-0.1,5c0,1.8,0,3.6,0,5.5c0,0.8-0.3,1-1,1
			c-2.4,0-2.4,0-2.4-2.3c0-5.4,0-10.8,0-16.1c0-0.9,0.2-1.3,1.2-1.2c2.2,0.1,2.2,0,2.3,2.2C321.6,340.9,321.5,341.2,321.8,341.5z"/>
		<path fill="#FFFFFF" d="M373.3,341.6c4-3.9,8.5-4.8,12.8-2.8c4,1.9,5.5,5.3,5.6,9.4c0.1,2.9,0,5.8,0,8.7c0,0.9-0.3,1.1-1.1,1.1
			c-2.2,0-2.2,0-2.2-2.2c0-2.7,0-5.4,0-8.1c-0.1-3.8-2.8-6.6-6.4-6.9c-4.6-0.3-8,1.9-8.6,5.8c-0.3,1.7-0.1,3.5-0.1,5.2
			c0,1.7,0,3.5,0,5.2c0,0.7-0.1,1-0.9,1c-2.5,0-2.5,0.1-2.5-2.5c0-5.3,0-10.7,0-16c0-0.9,0.1-1.3,1.2-1.3c2.2,0.1,2.2,0,2.3,2.2
			C373.3,340.9,373.3,341.1,373.3,341.6z"/>
		<path fill="#FDFDFD" d="M313.3,324c-2.5,2.2-4.8,4.2-7.1,6.3c-3.8,3.3-7.5,6.6-11.3,9.8c-0.7,0.6-0.6,0.9,0,1.4
			c6.1,5.2,12.3,10.5,18.4,15.8c0.2,0.2,0.4,0.4,0.9,0.7c-1.7,0-3.2,0-4.7,0c-0.4,0-0.6-0.3-0.9-0.6c-6.2-5.3-12.3-10.6-18.5-15.8
			c-0.7-0.6-0.7-0.8,0-1.4c6-5.2,12-10.4,18-15.7c0.5-0.4,0.9-0.6,1.5-0.6C310.7,324.1,311.8,324,313.3,324z"/>
		<path fill="#FDFDFD" d="M307.4,358.1c-1.6,0-3,0-4.3,0c-0.5,0-0.8-0.3-1.1-0.6c-4.7-4-9.4-8.1-14.1-12.1c-0.1-0.1-0.2-0.2-0.4-0.3
			c-0.5-0.5-1.1-0.4-1.6-0.3c-0.5,0.1-0.2,0.7-0.2,1.1c0,3.7,0,7.4,0,11.2c0,0.9-0.2,1.1-1.1,1.1c-2.1,0-2.1,0-2.1-2.1
			c0-4.5,0-8.9,0-13.4c0-0.8,0.2-1,1-1.1c3.4-0.4,5.9,0.7,8.4,3c4.9,4.6,10.1,8.8,15.2,13.2C307.1,357.8,307.1,357.8,307.4,358.1z"/>
		<path fill="#FDFDFD" d="M306.9,324c-3,2.7-5.9,5.1-8.7,7.6c-3.1,2.7-6.2,5.4-9.3,8.2c-0.5,0.4-0.9,0.6-1.5,0.6c-1.3,0-2.7-0.1-4,0
			c-0.7,0-1-0.2-1-0.9c0-4.9,0-9.9,0-14.8c0-0.6,0.1-0.8,0.8-0.9c2.4-0.1,2.4-0.1,2.4,2.3c0,3.2,0,6.4,0,9.6c0,0.5-0.3,1.2,0.2,1.4
			c0.7,0.3,1.4,0.1,2.1-0.5c2.8-2.6,5.7-5,8.6-7.6c1.6-1.4,3.2-2.8,4.7-4.2c0.7-0.6,1.3-0.9,2.3-0.9C304.5,324.1,305.6,324,306.9,324
			z"/>
		<path fill="#FDFDFD" d="M278.2,340.8c0-5.3,0-10.7,0-16c0-0.8,0.2-1,1-1c2.2,0,2.2,0,2.2,2.1c0,10.3,0,20.6,0,30.9
			c0,1-0.2,1.2-1.2,1.2c-2-0.1-2,0-2-2C278.2,351,278.2,345.9,278.2,340.8z"/>
		<path fill="#FFFFFF" d="M362.1,348.3c0-3,0-5.9,0-8.9c0-0.8,0.2-1,1-1c2.4,0,2.4,0,2.4,2.3c0,5.4,0,10.8,0,16.3
			c0,0.9-0.3,1.2-1.2,1.1c-2.3,0-2.3,0-2.3-2.2C362.1,353.3,362.1,350.8,362.1,348.3z"/>
		<path fill="#FFFFFF" d="M399.2,348.2c0,3,0,5.9,0,8.9c0,0.7-0.1,1.1-1,1.1c-2.4,0-2.4,0-2.4-2.4c0-5.4,0-10.8,0-16.1
			c0-1,0.3-1.2,1.2-1.2c2.2,0.1,2.2,0,2.2,2.2C399.2,343.1,399.2,345.6,399.2,348.2z"/>
		<path fill="#FFFFFF" d="M362.1,333.2c0-0.4,0-0.7,0-1.1c0-0.6,0.2-0.8,0.8-0.8c0.8,0.1,2-0.4,2.4,0.2c0.6,0.8,0.2,2,0.2,3.1
			c0,0.4-0.3,0.4-0.6,0.4c-0.3,0-0.6,0-1,0C361.8,335,362.2,335.3,362.1,333.2z"/>
		<path fill="#FFFFFF" d="M399.2,333.2c0,1.9,0,1.8-1.9,1.9c-1.1,0.1-1.5-0.2-1.5-1.4c0.1-2.4,0.5-2.7,2.9-2.3
			c0.4,0.1,0.5,0.3,0.5,0.6C399.2,332.4,399.2,332.8,399.2,333.2z"/>
		<path fill="#FDFDFD" d="M269.3,331.6c0-2.4-0.9-3.3-3.3-3.3c-4.1,0-8.1,0-12.2,0c-4.2,0-8.5,0-12.7,0c-0.8,0-1,0.2-1,1
			c0,3.4,0,6.9,0,10.3c0,0.7,0.1,1,0.9,1c8.4,0,16.8,0,25.2,0c2.1,0,3-1,3-3.1C269.3,335.5,269.3,333.5,269.3,331.6z M264.6,337.2
			c-3.4-0.1-6.8,0-10.2,0c-3.4,0-6.7,0-10.1,0c-0.8,0-1-0.2-1-1c0.1-1.3,0-2.6,0-3.9c0-0.6,0.1-0.8,0.8-0.8c6.9,0,13.8,0,20.7,0
			c0.9,0,1.3,0.4,1.3,1.3c0,1,0,1.9,0,2.9C266.2,336.8,265.8,337.3,264.6,337.2z"/>
	</g>

	<g id="brand">
		<path fill="#FFFFFF" d="M166.9,346.6h8V324h-8V346.6z"/>
		<g transform="matrix(.35278 0 0 -.35278 190.81 75.546)">
			<path fill="#FFFFFF" d="M-142.3-743.3l14.4,24.1l14.8-24.1H-142.3z M-142.8-704.3l-37.6-59.9l-36.9,28.3l34.2,31.5h-27.7
				l-25.6-23.5H-247v23.5h-22.8v-64h22.8v24.6h9.2l32-24.6h48.3l6.7,11.3h46.2l7.1-11.3h25.3l-40.8,64H-142.8"/>
		</g>
		<g transform="matrix(.35278 0 0 -.35278 167.02 75.546)">
			<path fill="#FFFFFF" d="M-277.1-743.3l14.4,24.1l14.8-24.1H-277.1z M-247.8-704.3h-29.7l-40.2-64h25.4l6.7,11.3h46.2l7.1-11.3
				h25.3L-247.8-704.3"/>
		</g>
		<g transform="matrix(.35278 0 0 -.35278 164.18 80.786)">
			<path fill="#FFFFFF" d="M-293.1-772.8c0-1.2-1.2-1.3-1.2-1.3h-9.9v3.1h9.9c0,0,1.2,0,1.2-1.3V-772.8z M-292.7-766.4h-16.9v-19.7
				h5.3v7.7h11.6c2.5,0,4.6,2.1,4.6,4.6v2.9C-288.1-768.5-290.2-766.4-292.7-766.4"/>
		</g>
		<g transform="matrix(.35278 0 0 -.35278 167.72 80.786)">
			<path fill="#FFFFFF" d="M-273.1-772.8c0-1.2-1.2-1.3-1.2-1.3h-9.9v3.1h9.9c0,0,1.2,0,1.2-1.3V-772.8z M-268.5-776
				c0,0.1,0.1,0.1,0.1,0.2c0,0.1,0.1,0.1,0.1,0.2c0.2,0.5,0.4,1,0.4,1.6v2.9c0,1-0.3,1.8-0.8,2.6c-0.8,1.2-2.2,2.1-3.8,2.1h-16.9
				v-19.7h5.3v7.7h7.5l4.8-7.7h5.5l-4.8,7.9C-270-777.9-269.1-777-268.5-776"/>
		</g>
		<g transform="matrix(.35278 0 0 -.35278 171.43 81.679)">
			<path fill="#FFFFFF" d="M-252.1-777.8c0-0.7-0.6-1.3-1.3-1.3h-9.8c-0.7,0-1.3,0.6-1.3,1.3v8.2c0,0.7,0.6,1.3,1.3,1.3h9.8
				c0.7,0,1.3-0.6,1.3-1.3V-777.8z M-251.4-763.9h-13.8c-2.5,0-4.6-2.1-4.6-4.6v-10.4c0-2.5,2.1-4.7,4.6-4.7h13.8
				c2.5,0,4.6,2.2,4.6,4.7v10.4C-246.8-766-248.8-763.9-251.4-763.9"/>
		</g>
		<g transform="matrix(.35278 0 0 -.35278 173.08 82.366)">
			<path fill="#FFFFFF" d="M-242.7-781.7h5.4v7.7h14.8v4.4h-14.8v3.1h16.1v4.5h-21.4V-781.7"/>
		</g>
		<g transform="matrix(.35278 0 0 -.35278 176.62 82.366)">
			<path fill="#FFFFFF" d="M-222.7-781.7h21.4v4.6h-16.1v3.1h14.8v4.4h-14.8v3.1h16.1v4.5h-21.4V-781.7"/>
		</g>
		<g transform="matrix(.35278 0 0 -.35278 182.2 80.935)">
			<path fill="#FFFFFF" d="M-191.1-773.6h-11.1c0,0-1.2,0.1-1.2,1.3v0.6c0,1.3,1.2,1.3,1.2,1.3h14.2v4.5h-15.8
				c-2.5,0-4.6-2.1-4.6-4.6v-2.9c0-2.5,1.9-4.5,4.4-4.6h11.4c0,0,1.2,0,1.2-1.3v-0.6c0-1.2-1.2-1.3-1.2-1.3h-15.1v-4.6h16.5
				c2.5,0,4.6,2.1,4.6,4.7v2.9C-186.5-775.7-188.6-773.6-191.1-773.6"/>
		</g>
		<g transform="matrix(.35278 0 0 -.35278 185.64 80.935)">
			<path fill="#FFFFFF" d="M-171.6-773.6h-11c0,0-1.2,0.1-1.2,1.3v0.6c0,1.3,1.2,1.3,1.2,1.3h14.2v4.5h-15.8c-2.5,0-4.6-2.1-4.6-4.6
				v-2.9c0-2.5,1.9-4.5,4.4-4.6h10.7c0,0,1.9,0,1.9-1.3v-0.6c0-1.2-1.9-1.3-1.9-1.3h-14.4v-4.6h16.5c2.5,0,4.6,2.1,4.6,4.7v2.9
				C-167-775.7-169.1-773.6-171.6-773.6"/>
		</g>
		<path fill="#FFFFFF" d="M129.3,358.1h2.1v-7h-2.1V358.1z"/>
		<g transform="matrix(.35278 0 0 -.35278 190.83 81.679)">
			<path fill="#FFFFFF" d="M-142.2-777.8c0-0.7-0.6-1.3-1.3-1.3h-9.8c-0.7,0-1.3,0.6-1.3,1.3v8.2c0,0.7,0.6,1.3,1.3,1.3h9.8
				c0.7,0,1.3-0.6,1.3-1.3L-142.2-777.8z M-141.5-763.9h-13.7c-2.5,0-4.6-2.1-4.6-4.6v-10.4c0-2.5,2.1-4.7,4.6-4.7h13.7
				c2.5,0,4.6,2.2,4.6,4.7v10.4C-136.9-766-139-763.9-141.5-763.9"/>
		</g>
		<g transform="matrix(.35278 0 0 -.35278 194.32 81.557)">
			<path fill="#FFFFFF" d="M-122.5-777.1l-8.2,12.9h-7.4V-784h5.5v13.1l8.3-13.1h7.3v19.7h-5.5L-122.5-777.1"/>
		</g>
		<g transform="matrix(.35278 0 0 -.35278 196.9 81.464)">
			<path fill="#FFFFFF" d="M-107.9-776.6l3.6,8l3.6-8H-107.9z M-108.5-764.5l-8.9-19.7h6.1l1.5,3.4h11l1.5-3.4h6.1l-8.9,19.7H-108.5"
				/>
		</g>
		<g transform="matrix(.35278 0 0 -.35278 200.36 80.035)">
			<path fill="#FFFFFF" d="M-88.3-768.5h-5.4v-19.7h20.8v4.5h-15.4V-768.5"/>
		</g>
		<g transform="matrix(.35278 0 0 -.35278 203.44 71.47)">
			<path fill="#FFFFFF" d="M-70.8-720.3h-1v1.4h1c0.7,0,1-0.2,1-0.6C-69.9-720.1-70.2-720.3-70.8-720.3z M-69.8-720.7
				c0.7,0.3,1.1,0.6,1.1,1.2c0,0.6-0.3,1.1-0.8,1.3c-0.3,0.1-0.5,0.1-1.2,0.1H-73v-5h1.1v2h0.8c0.8,0,1.1-0.3,1.1-1.3
				c0-0.4,0-0.5,0.1-0.6h1.1c-0.1,0.3-0.2,0.3-0.2,0.8C-69-721.1-69.1-720.9-69.8-720.7"/>
		</g>
		<g transform="matrix(.35278 0 0 -.35278 203.43 71.962)">
			<path fill="#FFFFFF" d="M-70.9-723.1c-2.1,0-3.8,1.7-3.8,3.8c0,2.1,1.7,3.8,3.7,3.8c2.1,0,3.8-1.7,3.8-3.8
				C-67.2-721.3-68.8-723.1-70.9-723.1z M-70.8-714.6c-2.6,0-4.7-2-4.7-4.6c0-2.5,2.1-4.6,4.6-4.6c2.5,0,4.6,2.1,4.6,4.6
				C-66.3-716.7-68.3-714.6-70.8-714.6"/>
		</g>
	</g>

	<g id="buttons">
		<g>
			<g>
				<path fill="#FFFFFF" d="M100.1,170.8v23.4H57.3v-23.4H100.1 M103.2,164.9h-49c-1.5,0-2.8,1.2-2.8,2.8v29.5c0,1.5,1.2,2.8,2.8,2.8
					h49c1.5,0,2.8-1.2,2.8-2.8v-29.5C106,166.1,104.7,164.9,103.2,164.9L103.2,164.9z"/>
			</g>
		</g>
		<g>
			<g>
				<path fill="#FFFFFF" d="M172.5,170.8v23.4h-42.8v-23.4H172.5 M175.6,164.9h-49c-1.5,0-2.8,1.2-2.8,2.8v29.5
					c0,1.5,1.2,2.8,2.8,2.8h49c1.5,0,2.8-1.2,2.8-2.8v-29.5C178.4,166.1,177.1,164.9,175.6,164.9L175.6,164.9z"/>
			</g>
		</g>
		<g>
			<g>
				<path fill="#FFFFFF" d="M100.1,221.3v23.4H57.3v-23.4H100.1 M103.2,215.5h-49c-1.5,0-2.8,1.2-2.8,2.8v29.5c0,1.5,1.2,2.8,2.8,2.8
					h49c1.5,0,2.8-1.2,2.8-2.8v-29.5C106,216.7,104.7,215.5,103.2,215.5L103.2,215.5z"/>
			</g>
		</g>
		<g>
			<g>
				<path fill="#FFFFFF" d="M172.5,221.3v23.4h-42.8v-23.4H172.5 M175.6,215.5h-49c-1.5,0-2.8,1.2-2.8,2.8v29.5
					c0,1.5,1.2,2.8,2.8,2.8h49c1.5,0,2.8-1.2,2.8-2.8v-29.5C178.4,216.7,177.1,215.5,175.6,215.5L175.6,215.5z"/>
			</g>
		</g>
		<g>
			<g>
				<path fill="#FFFFFF" d="M100.1,271.9v23.4H57.3v-23.4H100.1 M103.2,266h-49c-1.5,0-2.8,1.2-2.8,2.8v29.5c0,1.5,1.2,2.8,2.8,2.8
					h49c1.5,0,2.8-1.2,2.8-2.8v-29.5C106,267.3,104.7,266,103.2,266L103.2,266z"/>
			</g>
		</g>
		<g>
			<g>
				<path fill="#FFFFFF" d="M172.5,271.9v23.4h-42.8v-23.4H172.5 M175.6,266h-49c-1.5,0-2.8,1.2-2.8,2.8v29.5c0,1.5,1.2,2.8,2.8,2.8
					h49c1.5,0,2.8-1.2,2.8-2.8v-29.5C178.4,267.3,177.1,266,175.6,266L175.6,266z"/>
			</g>
		</g>
	</g>

	<g id="joystick">
		<g>
			<path fill="#FFFFFF" d="M114.8,47.4c24.6,0,44.5,19.9,44.5,44.4c0,24.5-19.9,44.4-44.5,44.4s-44.5-19.9-44.5-44.4
				C70.2,67.3,90.2,47.4,114.8,47.4 M114.8,41.6c-27.8,0-50.4,22.5-50.4,50.2s22.6,50.2,50.4,50.2s50.4-22.5,50.4-50.2
				S142.5,41.6,114.8,41.6L114.8,41.6z"/>
		</g>
		<ellipse fill="#FFFFFF" cx="114.8" cy="91.8" rx="38.4" ry="38.3"/>
	</g>

	<g id="frame">
		<rect id="rectangle" x="13.1" y="12" fill="none" stroke="#FFFFFF" stroke-width="6.6984" stroke-miterlimit="10" width="1280" height="700"/>
		<line id="left" fill="none" stroke="#FFFFFF" stroke-width="15.0715" stroke-linecap="round" stroke-miterlimit="10" x1="13.1" y1="12" x2="13.1" y2="712"/>
		<line id="right" fill="none" stroke="#FFFFFF" stroke-width="15.0715" stroke-linecap="round" stroke-miterlimit="10" x1="1293.1" y1="12" x2="1293.1" y2="712"/>
	</g>

</svg>
